<?xml version="1.0" encoding="utf-8"?>
<!-- Generator: Adobe Illustrator 22.0.1, SVG Export Plug-In . SVG Version: 6.00 Build 0)  -->
<svg version="1.1" id="Nublado" xmlns="http://www.w3.org/2000/svg" xmlns:xlink="http://www.w3.org/1999/xlink" x="0px" y="0px"
	 viewBox="0 0 512 512" style="enable-background:new 0 0 512 512;" xml:space="preserve">
<style type="text/css">
	.st0{fill:#FFBE00;}
	.st1{fill:#E95D0F;}
	.st2{fill:#ECEDED;}
	.st3{fill:#C6C7C8;}
</style>
<title>Icon_Partly_Cloudy</title>
<g>
	<circle class="st0" cx="203" cy="238" r="92.9"/>
	<path class="st0" d="M203,81L203,81c5,0,9,4,9,9v25.2c0,5-4,9-9,9l0,0c-5,0-9-4-9-9V90C194,85,198,81,203,81z"/>
	<path class="st1" d="M203,128.2c-7.2,0-13-5.8-13-13V90c0-7.2,5.8-13,13-13s13,5.8,13,13v25.2C216,122.4,210.2,128.2,203,128.2z
		 M203,85c-2.8,0-5,2.2-5,5v25.2c0,2.8,2.2,5,5,5s5-2.2,5-5V90C208,87.2,205.8,85,203,85z"/>
	<path class="st0" d="M92,127L92,127c3.5-3.5,9.2-3.5,12.7,0l17.8,17.8c3.5,3.5,3.5,9.2,0,12.7l0,0c-3.5,3.5-9.2,3.5-12.7,0
		L92,139.7C88.5,136.2,88.5,130.5,92,127z"/>
	<path class="st1" d="M116.2,164.1c-3.4,0-6.8-1.4-9.2-3.8l-17.8-17.8c-5.1-5.1-5.1-13.3,0-18.4c5.1-5.1,13.3-5.1,18.4,0l17.8,17.9
		c5.1,5.1,5.1,13.3,0,18.4C122.9,162.8,119.6,164.2,116.2,164.1L116.2,164.1z M98.3,128.3c-2.8,0-5,2.2-5,5c0,1.3,0.5,2.6,1.5,3.5
		l17.8,17.8c2,1.9,5.2,1.9,7.1-0.1c1.9-1.9,1.9-5,0-6.9l-17.8-17.8C100.9,128.9,99.7,128.3,98.3,128.3z"/>
	<path class="st0" d="M46,238L46,238c0-5,4-9,9-9h25.2c5,0,9,4,9,9l0,0c0,5-4,9-9,9H55C50,247,46,242.9,46,238z"/>
	<path class="st1" d="M80.2,251H55c-7.2,0-13-5.8-13-13s5.8-13,13-13h25.2c7.2,0,13,5.8,13,13S87.4,251,80.2,251z M55,233
		c-2.8,0-5,2.2-5,5s2.2,5,5,5h25.2c2.8,0,5-2.2,5-5s-2.2-5-5-5H55z"/>
	<path class="st0" d="M92,348.9L92,348.9c-3.5-3.5-3.5-9.2,0-12.7l17.8-17.8c3.5-3.5,9.2-3.5,12.7,0l0,0c3.5,3.5,3.5,9.2,0,12.7
		l-17.8,17.8C101.2,352.5,95.5,352.5,92,348.9z"/>
	<path class="st1" d="M98.3,355.6c-7.2,0-13-5.8-13-13c0-3.4,1.4-6.8,3.8-9.2l17.9-17.8c5.1-5.1,13.3-5,18.4,0
		c5.1,5.1,5,13.3,0,18.4l0,0l-17.8,17.8C105.1,354.2,101.8,355.6,98.3,355.6z M116.2,319.8c-1.3,0-2.6,0.5-3.5,1.5L94.8,339
		c-1.9,2-1.9,5.2,0.1,7.1c1.9,1.9,5,1.9,6.9,0l17.8-17.8c2-2,2-5.1,0-7.1C118.8,320.3,117.5,319.8,116.2,319.8z"/>
	<path class="st0" d="M313.9,127L313.9,127c3.5,3.5,3.5,9.2,0,12.7l-17.8,17.8c-3.5,3.5-9.2,3.5-12.7,0l0,0c-3.5-3.5-3.5-9.2,0-12.7
		l17.8-17.8C304.7,123.5,310.4,123.5,313.9,127z"/>
	<path class="st1" d="M289.8,164.1c-7.2,0-13-5.9-13-13c0-3.4,1.4-6.7,3.8-9.1l17.8-17.8c5.1-5.1,13.3-5.1,18.4,0
		c5.1,5.1,5.1,13.3,0,18.4l0,0L299,160.4C296.5,162.8,293.2,164.2,289.8,164.1z M307.6,128.3c-1.3,0-2.6,0.5-3.5,1.5l-17.8,17.8
		c-2,1.9-2,5.1-0.1,7.1s5.1,2,7.1,0.1c0,0,0.1-0.1,0.1-0.1l17.8-17.8c2-2,2-5.1,0-7.1C310.2,128.9,308.9,128.3,307.6,128.3
		L307.6,128.3z"/>
	<path class="st1" d="M203,335.6c-53.9,0-97.6-43.7-97.6-97.6s43.7-97.6,97.6-97.6c16.1,0,31.9,4,46,11.5c2,1,2.7,3.4,1.7,5.4
		s-3.4,2.7-5.4,1.7c0,0-0.1,0-0.1,0c-43.6-23.3-97.8-6.9-121.1,36.7s-6.9,97.8,36.7,121.1s97.8,6.9,121.1-36.7
		c14.3-26.7,14.1-58.8-0.5-85.3c-1-2-0.2-4.4,1.8-5.4c1.9-0.9,4.1-0.3,5.2,1.5c26,47.3,8.7,106.6-38.5,132.6
		C235.6,331.4,219.4,335.6,203,335.6z"/>
	<path class="st1" d="M273.5,182.6c-4.5-5.8-9.7-10.9-15.5-15.4l4.9-6.3c6.3,4.9,12,10.5,16.9,16.8L273.5,182.6z"/>
	<rect x="74" y="168" transform="matrix(0.3827 -0.9239 0.9239 0.3827 -123.8828 187.0008)" class="st1" width="8" height="36.3"/>
	
		<rect x="309.8" y="182.2" transform="matrix(0.9239 -0.3827 0.3827 0.9239 -46.2943 139.6686)" class="st1" width="36.3" height="8"/>
	
		<rect x="59.8" y="285.7" transform="matrix(0.9239 -0.3827 0.3827 0.9239 -104.9368 51.901)" class="st1" width="36.3" height="8"/>
	<rect x="236.6" y="109" transform="matrix(0.3827 -0.9239 0.9239 0.3827 52.8525 305.077)" class="st1" width="36.3" height="8"/>
	
		<rect x="147.2" y="94.8" transform="matrix(0.9239 -0.3827 0.3827 0.9239 -31.7322 66.4646)" class="st1" width="8" height="36.3"/>
	<path class="st2" d="M186.6,431c-29.8-0.6-53.5-25.3-52.9-55.1c0.6-29.8,25.3-53.5,55.1-52.9c0.4,0-0.7-8.4-0.7-13
		c0-23.9,19.3-43.2,43.2-43.2c8.1,0,16,2.3,22.9,6.6c7.5-39.1,45.2-64.7,84.3-57.2c26.3,5,47.6,24.2,55.4,49.8
		c45.4,5.7,77.5,47.1,71.8,92.5c-5.2,41.5-40.6,72.6-82.4,72.5H186.6z"/>
	<path class="st3" d="M445.2,299.5c-4-5.1-8.6-9.6-13.6-13.5l4.9-6.3c5.6,4.4,10.6,9.4,15,15L445.2,299.5z"/>
	<path class="st3" d="M383.2,435H188.8c-32,0-58-26-58-58c0-30.4,23.5-55.6,53.8-57.8c0-0.3,0-0.5-0.1-0.7c-0.2-2.8-0.5-6-0.5-8.4
		c0-26.1,21.1-47.2,47.2-47.2c7,0,13.8,1.5,20.2,4.5c10.8-40.6,52.5-64.7,93-53.8c24.5,6.5,44.2,24.9,52.4,48.9
		c9.9,1.6,19.4,4.8,28.2,9.7c2,1,2.8,3.4,1.8,5.4c-1,2-3.4,2.8-5.4,1.8c-0.1,0-0.2-0.1-0.3-0.2c-8.6-4.8-18.1-7.9-27.9-9.1l-2.6-0.3
		l-0.8-2.5c-10.9-35.9-48.9-56.2-84.8-45.3c-24.2,7.3-42.3,27.5-47.1,52.3l-1.1,5.8l-5-3.1c-18.3-11.5-42.5-5.9-54,12.4
		c-3.9,6.2-6,13.5-6,20.8c0,2,0.3,5.2,0.5,7.7c0.5,5.4,0.6,6.5-0.8,8l-1.2,1.3h-1.7c-27.6,0-50,22.4-50,50s22.4,50,50,50h194.4
		c43.5,0,78.8-35.3,78.8-78.9c0-13.5-3.5-26.8-10.1-38.6c-1.1-1.9-0.4-4.4,1.5-5.5s4.4-0.4,5.5,1.5c23.5,41.8,8.7,94.7-33.1,118.2
		C412.8,431.2,398.1,435,383.2,435z"/>
	<path class="st3" d="M227,342.8c-1.1,0-2.1-0.4-2.8-1.2c-9.4-9.4-22.1-14.7-35.4-14.6c-2.2,0-4-1.8-4-4s1.8-4,4-4
		c15.4,0,30.2,6.1,41,17c1.6,1.6,1.6,4.1,0,5.7C229.1,342.4,228,342.8,227,342.8L227,342.8z"/>
</g>
</svg>
