<svg width="512" height="512" viewBox="0 0 512 512" fill="none" xmlns="http://www.w3.org/2000/svg">
<circle cx="256.5" cy="256.5" r="204.5" fill="#8AA7EC"/>
<ellipse cx="241.675" cy="280.432" rx="81.952" ry="87.5676" fill="#E9A219"/>
<rect width="12.1954" height="38.8514" rx="6.09769" transform="matrix(-0.170064 -0.985433 0.97793 -0.208934 118.074 299.837)" fill="#E9A219"/>
<path d="M230.245 150.441C230.767 147.436 233.607 145.521 236.588 146.164V146.164C239.57 146.807 241.564 149.764 241.042 152.769L235.593 184.15C235.072 187.155 232.232 189.07 229.25 188.427V188.427C226.269 187.785 224.275 184.827 224.796 181.822L230.245 150.441Z" fill="#E9A219"/>
<rect width="11.1243" height="42.6438" rx="5.56215" transform="matrix(0.939608 -0.342252 0.282263 0.959337 180.928 155.897)" fill="#E9A219"/>
<rect width="11.65" height="40.8698" rx="5.82501" transform="matrix(0.659016 -0.752129 0.67781 0.735237 141.507 192.433)" fill="#E9A219"/>
<rect width="12.133" height="39.0922" rx="6.06652" transform="matrix(0.269285 -0.963061 0.944985 0.327114 119.478 243.049)" fill="#E9A219"/>
<path d="M350.476 258.798C345.775 258.798 341.256 259.653 336.989 261.241C331.943 243.934 318.251 231.498 302.095 231.498C284.774 231.498 270.268 245.802 266.252 265.084C261.962 261.19 256.676 258.798 250.881 258.798C236.732 258.798 225.271 272.549 225.271 289.511C225.271 293.628 225.973 297.543 227.196 301.135C224.755 300.324 222.233 299.749 219.575 299.749C203.858 299.749 191.12 315.023 191.12 333.874C191.12 352.726 203.858 368 219.575 368H350.47C375.617 368 396 343.559 396 313.399C396 283.239 375.617 258.798 350.476 258.798Z" fill="#E1E8ED"/>
</svg>
