<svg width="512" height="512" viewBox="0 0 512 512" fill="none" xmlns="http://www.w3.org/2000/svg">
<ellipse cx="229.789" cy="312.133" rx="141.367" ry="135.867" fill="#E9A219"/>
<rect width="18.9865" height="66.7388" rx="9.49323" transform="matrix(-0.188432 -0.982086 0.982032 -0.188716 16.5776 342.241)" fill="#E9A219"/>
<path d="M209.898 111.314C210.895 106.17 215.873 102.806 221.017 103.8V103.8C226.162 104.794 229.524 109.77 228.528 114.914L219.434 161.856C218.437 167 213.459 170.364 208.315 169.37V169.37C203.17 168.376 199.808 163.401 200.804 158.257L209.898 111.314Z" fill="#E9A219"/>
<rect width="18.9736" height="66.7841" rx="9.48679" transform="matrix(0.950297 -0.311344 0.310904 0.950441 125 118.907)" fill="#E9A219"/>
<rect width="18.9798" height="66.7624" rx="9.48988" transform="matrix(0.697785 -0.716308 0.715761 0.698345 57 175.595)" fill="#E9A219"/>
<rect width="18.9857" height="66.7415" rx="9.49284" transform="matrix(0.296856 -0.954922 0.95479 0.29728 19 254.13)" fill="#E9A219"/>
<path d="M417.471 278.566C409.362 278.566 401.567 279.892 394.206 282.356C385.501 255.502 361.883 236.207 334.013 236.207C304.134 236.207 279.112 258.401 272.186 288.319C264.784 282.278 255.666 278.566 245.669 278.566C221.263 278.566 201.492 299.901 201.492 326.219C201.492 332.606 202.704 338.681 204.814 344.255C200.603 342.995 196.251 342.104 191.667 342.104C164.555 342.104 142.582 365.802 142.582 395.052C142.582 424.301 164.555 448 191.667 448H417.46C460.84 448 496 410.078 496 363.283C496 316.488 460.84 278.566 417.471 278.566Z" fill="#E1E8ED"/>
</svg>
